/vscmnt/brussel_pixiu_data/_data_brussel/112/vsc11236/PredSimResults/SUBJ07mtu3D/worker6.mot
version=1
nRows=4
nColumns=50
inDegrees=yes
endheader
                time	         pelvis_tilt	         pelvis_list	     pelvis_rotation	           pelvis_tx	           pelvis_ty	           pelvis_tz	       hip_flexion_r	     hip_adduction_r	      hip_rotation_r	        knee_angle_r	       ankle_angle_r	         mtp_angle_r	       hip_flexion_l	     hip_adduction_l	      hip_rotation_l	        knee_angle_l	       ankle_angle_l	         mtp_angle_l	    lumbar_extension	      lumbar_bending	     lumbar_rotation	 ercspn_r/activation	 intobl_r/activation	 extobl_r/activation	    abd_r/activation	    add_r/activation	hamstrings_r/activation	bifemsh_r/activation	glut_max_r/activation	iliopsoas_r/activation	rect_fem_r/activation	  vasti_r/activation	gastroc_r/activation	 soleus_r/activation	tib_ant_r/activation	 ercspn_l/activation	 intobl_l/activation	 extobl_l/activation	    abd_l/activation	    add_l/activation	hamstrings_l/activation	bifemsh_l/activation	glut_max_l/activation	iliopsoas_l/activation	rect_fem_l/activation	  vasti_l/activation	gastroc_l/activation	 soleus_l/activation	tib_ant_l/activation	
          0.00000000	         -3.76085743	         -1.04368250	          6.59878037	          0.00000000	          0.85553849	         -0.01120821	         29.10447179	         -0.01417895	         -2.07388319	         -7.80179285	          6.05608017	          0.26560808	        -12.97758488	          0.46604503	          3.89493685	         -8.29125983	         10.83258637	         21.94813590	         -9.15892105	          0.24690447	         -3.44498241	          0.10511268	          0.18069174	          0.02336500	          0.04834862	          0.09637845	          0.04080308	          0.08980722	          0.02986187	          0.05725824	          0.02972278	          0.01000004	          0.01000000	          0.01000000	          0.32137562	          0.08159552	          0.01000000	          0.01000002	          0.06326197	          0.01059996	          0.01608783	          0.12979392	          0.03507507	          0.45635658	          0.01000009	          0.01000002	          0.09854158	          0.29065088	          0.01750661	
          0.01019013	         -3.82584983	         -0.95681516	          6.40608086	          0.01441295	          0.85402510	         -0.01133800	         28.64599672	          0.25310828	         -1.18360460	         -8.37524201	          5.74290640	          0.26269040	        -13.05782170	          0.61735884	          3.26968237	         -9.89888211	         10.33806450	         23.58922731	         -8.95055644	          0.66989032	         -3.59607661	          0.08985256	          0.15445911	          0.01997289	          0.04132942	          0.11942894	          0.03487934	          0.07676913	          0.09375780	          0.04894555	          0.02540767	          0.01169835	          0.02131545	          0.02190945	          0.30813308	          0.12215820	          0.01000000	          0.01000002	          0.05407766	          0.02562126	          0.01375235	          0.11095057	          0.02998291	          0.46253648	          0.01000060	          0.01335678	          0.08423541	          0.27516740	          0.01496501	
          0.02038027	         -3.87698878	         -0.89045776	          6.16926506	          0.02899999	          0.85264968	         -0.01141710	         28.12227728	          0.49616680	         -0.28548656	         -9.10544821	          5.48728460	          0.25333947	        -13.01676922	          0.74995570	          2.61667312	        -11.76471235	          9.72843699	         25.23438920	         -8.73137396	          1.12679575	         -3.73227563	          0.09070735	          0.13808632	          0.01707325	          0.09426462	          0.11517223	          0.03997531	          0.06562392	          0.10288842	          0.04183968	          0.02171902	          0.01000000	          0.01822090	          0.01872866	          0.34771237	          0.12971930	          0.01000000	          0.01000003	          0.04622672	          0.02190160	          0.01175585	          0.09484289	          0.02563002	          0.44590724	          0.01000011	          0.01141767	          0.07200620	          0.24058790	          0.01279241	
          0.03057040	         -3.91617354	         -0.83906065	          5.88747878	          0.04359422	          0.85155381	         -0.01140495	         27.57153719	          0.74348574	          0.51749032	         -9.76494241	          5.10042978	          0.24112751	        -12.77227160	          0.86648030	          1.93602743	        -14.00926847	          8.97888614	         26.83911972	         -8.52163971	          1.60308031	         -3.84861326	          0.09513498	          0.11803909	          0.01459458	          0.12950736	          0.11709224	          0.04158457	          0.05609673	          0.10867701	          0.03576544	          0.01856589	          0.03277485	          0.01557561	          0.01600966	          0.36852684	          0.14963370	          0.01000000	          0.01000002	          0.03951557	          0.01872197	          0.01954021	          0.08107370	          0.02190908	          0.42414432	          0.01000008	          0.01169849	          0.06155241	          0.20565959	          0.01093522	
